<svg xmlns="http://www.w3.org/2000/svg" viewBox="0 0 480 160" fill="none" stroke="#000" stroke-width="4" stroke-linecap="round" stroke-linejoin="round">
  <path d="M40 140h400"/>
  <rect x="70" y="86" width="44" height="54" rx="8"/>
  <rect x="140" y="54" width="44" height="86" rx="8"/>
  <rect x="210" y="100" width="44" height="40" rx="8"/>
  <rect x="280" y="36" width="44" height="104" rx="8"/>
  <rect x="350" y="72" width="44" height="68" rx="8"/>
  <path d="M92 108c10 8 20 8 22 0M162 76c10 8 20 8 22 0M232 120c10 8 20 8 22 0M302 58c10 8 20 8 22 0M372 94c10 8 20 8 22 0" stroke-width="3"/>
  <path d="M40 30l60 14 70-20 70 22 70-26 70 18" stroke-width="3"/>
</svg>
